<svg width="600" height="450" viewBox="0 0 800 600" fill="none" xmlns="http://www.w3.org/2000/svg" data-reactroot="">
<path fill-rule="evenodd" clip-rule="evenodd" d="M405.111 193.469C405.111 289.001 327.666 366.446 232.134 366.446C136.601 366.446 59.1562 289.001 59.1562 193.469C59.1562 97.9359 136.601 20.4912 232.134 20.4912C327.666 20.4912 405.111 97.9359 405.111 193.469ZM138.791 533.239H551.193C553.614 533.239 555.497 531.356 555.497 528.935V509.566C555.497 507.145 553.614 505.262 551.193 505.262H138.791C136.37 505.262 134.487 507.145 134.487 509.566V528.935C134.487 531.356 136.37 533.239 138.791 533.239ZM598.269 583.274H139.866C137.445 583.274 135.561 581.391 135.561 578.97V559.601C135.561 557.179 137.445 555.296 139.866 555.296H598.269C600.69 555.296 602.573 557.179 602.573 559.601V578.97C602.573 581.391 600.69 583.274 598.269 583.274ZM718.785 205.303C718.785 215.555 710.475 223.865 700.224 223.865C689.972 223.865 681.661 215.555 681.661 205.303C681.661 195.052 689.972 186.741 700.224 186.741C710.475 186.741 718.785 195.052 718.785 205.303Z" fill="#1fb28a"></path>
<path d="M674.94 206.65H661.489V203.96H674.94V206.65ZM648.039 206.65H634.588V203.96H648.039V206.65ZM621.137 206.65H607.686V203.96H621.137V206.65ZM594.235 206.65H580.785V203.96H594.235V206.65ZM567.334 206.65H553.883V203.96H567.334V206.65ZM540.432 206.65H526.981V203.96H540.432V206.65ZM513.531 206.65H500.08V203.96H513.531V206.65ZM486.629 206.65H473.178V203.96H486.629V206.65ZM459.727 206.65H446.277V203.96H459.727V206.65ZM432.826 206.65H419.375V203.96H432.826V206.65Z" fill="#4D4D4D"></path>
<path opacity="0.37" d="M313.653 242.963L291.594 245.653L236.715 252.647L194.21 258.027L160.045 262.332C148.478 263.677 141.214 251.84 148.478 243.5L161.659 228.167C175.11 212.295 181.298 192.387 178.877 172.749L175.917 148.538C173.765 131.859 183.181 120.291 197.977 113.566L196.632 102.536C195.824 96.6177 200.129 91.2373 205.778 90.6993L226.761 88.0091C232.68 87.2021 238.06 91.5064 238.598 97.1557L239.943 108.185C256.084 110.875 267.921 119.753 270.073 136.432L273.032 160.643C275.453 180.282 286.483 198.037 303.431 209.873L320.11 221.441C329.256 228.167 325.221 241.348 313.653 242.963Z" fill="white"></path>
<path d="M151.973 263.948C146.593 263.948 141.751 261.258 139.329 256.685C136.908 252.112 137.446 246.731 140.944 242.427L154.394 226.824C168.114 210.952 174.033 191.314 171.611 171.407L168.383 146.658C166.231 130.517 174.301 117.604 190.711 110.071L189.366 99.8487C188.828 96.6205 189.904 93.3922 191.788 90.7021C193.671 88.0119 196.63 86.398 199.858 86.1289L221.11 83.4388C224.338 82.9008 227.567 83.9769 230.257 85.86C232.947 87.7431 234.561 90.7023 234.83 93.9305L236.175 104.153C253.93 107.381 264.96 117.873 266.843 134.014L270.071 158.763C272.492 178.401 283.522 195.888 300.47 207.993L317.418 219.83C321.991 223.058 323.874 228.169 322.529 233.281C321.184 238.93 316.342 242.965 310.155 243.772L153.587 263.679C153.318 263.679 152.78 263.948 151.973 263.948ZM223.262 86.1289C222.724 86.1289 222.455 86.1289 221.917 86.1289L200.665 88.8191C198.244 89.0881 195.823 90.4333 194.209 92.3164C192.595 94.1996 192.057 96.8897 192.326 99.3108L193.94 111.685L193.133 111.954C181.834 116.797 168.921 126.75 171.342 146.12L174.57 170.869C177.261 191.314 170.804 211.76 156.546 228.17L143.096 243.772C140.136 247 139.598 251.305 141.751 255.071C143.903 259.106 148.745 261.527 153.856 260.72L310.424 240.813C315.535 240.275 319.57 236.778 320.646 232.205C321.722 228.17 320.108 224.134 316.611 221.713L299.663 209.876C281.908 197.502 270.609 179.208 267.919 158.763L264.691 134.014C262.27 114.645 247.205 108.457 235.099 106.305L234.023 106.036L232.409 93.6615C232.14 91.2404 230.795 88.8192 228.912 87.2051C227.298 86.667 225.146 86.1289 223.262 86.1289Z" fill="#00376E"></path>
<path d="M692.96 157.689C697.534 157.689 702.107 158.227 706.68 159.572C707.487 159.841 707.756 160.648 707.487 161.186C707.218 161.993 706.411 162.262 705.873 161.993C701.838 160.648 697.265 160.11 692.96 160.11C692.153 160.11 691.615 159.572 691.615 158.765C691.615 157.958 692.422 157.689 692.96 157.689ZM718.517 165.222C718.786 165.222 719.055 165.221 719.324 165.49C723.09 167.912 726.587 171.14 729.546 174.637C730.084 175.175 730.085 175.982 729.277 176.52C728.739 177.058 727.932 177.058 727.394 176.251C724.704 173.023 721.207 170.064 717.71 167.643C717.172 167.105 716.903 166.297 717.441 165.759C717.71 165.49 717.979 165.222 718.517 165.222ZM735.734 185.398C736.272 185.398 736.81 185.667 737.079 186.205C738.962 190.509 740.038 194.813 740.845 199.386C740.845 200.193 740.307 200.731 739.769 201C738.962 201 738.424 200.463 738.155 199.925C737.617 195.62 736.541 191.316 734.658 187.281C734.389 186.474 734.658 185.936 735.465 185.398C735.196 185.398 735.465 185.398 735.734 185.398ZM738.962 211.761C740.038 212.03 740.307 212.568 740.307 213.375C739.5 217.949 738.155 222.253 736.003 226.557C735.734 227.095 734.927 227.364 734.12 227.095C733.582 226.826 733.044 226.019 733.582 225.212C735.465 221.177 736.81 217.141 737.617 212.837C737.617 212.299 738.155 211.761 738.962 211.761ZM727.125 235.435C727.394 235.435 727.663 235.435 727.932 235.704C728.47 236.242 728.47 237.049 727.932 237.587C724.704 241.084 721.207 244.043 717.172 246.195C716.634 246.464 715.827 246.464 715.289 245.657C715.02 245.119 715.02 244.312 715.827 243.774C719.593 241.622 723.09 238.663 726.049 235.435C726.587 235.704 726.856 235.435 727.125 235.435ZM704.528 249.154C705.066 249.154 705.604 249.692 705.873 250.23C706.142 251.038 705.604 251.576 704.797 251.845C701.031 252.921 696.996 253.19 692.96 253.19C692.153 253.19 691.615 252.652 691.615 251.845C691.615 251.037 692.153 250.499 692.96 250.499C696.727 250.499 700.493 249.961 703.99 249.154C704.259 249.154 704.259 249.154 704.528 249.154Z" fill="#00376E"></path>
<path fill-rule="evenodd" clip-rule="evenodd" d="M248.282 293.537C273.032 290.309 291.056 269.595 291.863 245.653L236.715 252.647L194.21 258.027C200.935 281.163 223.533 296.766 248.282 293.537ZM64.81 464.099H282.982C285.941 464.099 288.362 461.678 288.362 458.718V426.436C288.362 423.477 285.941 421.056 282.982 421.056H64.81C61.8508 421.056 59.4297 423.477 59.4297 426.436V458.718C59.4297 461.678 61.8508 464.099 64.81 464.099ZM114.574 516.019C114.574 527.162 105.541 536.195 94.398 536.195C83.255 536.195 74.2218 527.162 74.2218 516.019C74.2218 504.876 83.255 495.842 94.398 495.842C105.541 495.842 114.574 504.876 114.574 516.019ZM96.0119 590C107.155 590 116.188 580.967 116.188 569.824C116.188 558.681 107.155 549.648 96.0119 549.648C84.8689 549.648 75.8358 558.681 75.8358 569.824C75.8358 580.967 84.8689 590 96.0119 590Z" fill="#20a07c"></path>
<path opacity="0.3" d="M713.139 10H471.562V47.3933H713.139V10Z" fill="#1fb28a"></path>
<path opacity="0.3" d="M713.137 66.4917H527.785V138.319H713.137V66.4917Z" fill="#1fb28a"></path>
<path opacity="0.3" d="M713.137 269.599H527.785V341.427H713.137V269.599Z" fill="#1fb28a"></path>
<path opacity="0.3" d="M713.137 371.291H527.785V443.118H713.137V371.291Z" fill="#1fb28a"></path>
<path opacity="0.3" d="M512.721 66.4917H474.252V138.319H512.721V66.4917Z" fill="#1fb28a"></path>
<path opacity="0.3" d="M512.721 269.599H474.252V341.427H512.721V269.599Z" fill="#1fb28a"></path>
<path opacity="0.3" d="M512.721 371.291H474.252V443.118H512.721V371.291Z" fill="#1fb28a"></path>
<path d="M232.137 303.491C206.85 303.491 184.79 284.66 181.562 258.834L181.293 257.489L282.981 244.577V246.191C284.595 259.641 281.098 273.092 272.758 283.853C264.419 294.614 252.313 301.608 238.862 303.222C236.441 303.491 234.289 303.491 232.137 303.491ZM184.252 259.91C188.287 285.736 212.23 303.76 238.055 300.532C250.968 298.918 262.267 292.461 270.337 282.239C277.87 272.285 281.367 260.179 280.291 247.805L184.252 259.91Z" fill="#00376E"></path>
</svg>
